<?xml version="1.0" standalone="no"?>
<!DOCTYPE svg PUBLIC "-//W3C//DTD SVG 20010904//EN"
 "http://www.w3.org/TR/2001/REC-SVG-20010904/DTD/svg10.dtd">
<svg version="1.0" xmlns="http://www.w3.org/2000/svg"
 width="764.000000pt" height="509.000000pt" viewBox="0 0 764.000000 509.000000"
 preserveAspectRatio="xMidYMid meet">
<metadata>
Created by potrace 1.16, written by Peter Selinger 2001-2019
</metadata>
<g transform="translate(0.000000,509.000000) scale(0.100000,-0.100000)"
fill="#000000" stroke="none">
<path d="M4145 5070 c10 -11 24 -20 30 -20 7 0 18 -15 25 -32 25 -64 34 -68
136 -68 83 0 93 -2 99 -19 8 -26 20 -27 129 -19 50 4 190 10 311 14 l220 6 13
-35 c10 -29 10 -40 1 -56 -32 -50 6 -56 434 -67 210 -5 217 -6 217 -25 0 -20
5 -21 103 -18 120 3 137 -3 137 -42 l0 -29 68 1 c37 0 78 -2 92 -5 18 -5 33 0
54 19 l29 25 417 0 c407 0 418 -1 441 -21 13 -11 31 -18 41 -16 20 6 33 -23
23 -53 -3 -11 -3 -40 1 -65 5 -33 11 -45 23 -45 16 0 17 5 4 67 -9 45 -11 74
-5 88 9 18 11 17 26 -17 20 -46 31 -47 51 -8 11 21 23 30 40 30 14 0 25 5 25
10 0 6 6 10 14 10 22 0 28 -34 11 -66 -19 -37 -19 -105 0 -151 8 -20 15 -66
15 -105 0 -38 5 -79 12 -91 6 -12 14 -60 17 -107 3 -47 11 -85 16 -85 17 0 17
80 1 175 -9 49 -16 110 -16 134 0 26 -5 46 -12 48 -19 7 -11 135 9 175 16 30
16 33 0 51 -24 26 -21 32 13 32 21 0 30 -5 32 -17 5 -59 4 -73 -4 -73 -5 0 -8
-24 -6 -52 2 -29 7 -53 12 -53 10 0 32 65 40 122 4 28 2 43 -7 46 -6 3 2 5 18
3 17 -1 37 -6 44 -10 18 -11 29 3 11 15 -11 6 -12 11 -4 17 7 4 13 16 15 27 4
16 11 19 42 17 l37 -4 0 181 0 181 -1757 0 c-1755 0 -1756 0 -1738 -20z"/>
<path d="M3833 4478 c-19 -24 -25 -53 -29 -128 -2 -41 -10 -91 -18 -110 -8
-19 -20 -61 -27 -93 -7 -31 -18 -62 -26 -68 -7 -6 -13 -27 -13 -46 0 -30 2
-34 15 -23 8 7 15 18 15 24 0 18 14 33 38 40 18 6 22 3 22 -12 0 -30 23 -44
44 -29 17 12 17 15 2 29 -17 18 -22 58 -6 58 14 0 31 -36 24 -54 -4 -10 2 -17
21 -22 14 -3 28 -5 30 -2 7 6 7 91 0 133 -4 22 -15 61 -26 87 -12 29 -19 73
-20 120 -1 40 -3 81 -6 91 -5 20 -26 22 -40 5z"/>
<path d="M7560 3990 c0 -5 -36 -37 -80 -71 -44 -34 -80 -66 -80 -71 0 -5 11
-13 25 -18 19 -7 25 -17 25 -39 0 -15 3 -43 7 -62 5 -28 7 -30 14 -14 4 11 8
38 8 60 l1 40 61 12 c82 16 99 35 99 113 l0 60 -40 0 c-22 0 -40 -4 -40 -10z"/>
<path d="M3585 3618 c-6 -15 -20 -18 -71 -18 -73 0 -87 -13 -72 -67 7 -29 11
-31 27 -21 13 8 27 8 47 1 28 -10 181 -9 256 2 36 5 67 -14 39 -23 -55 -18
-126 -136 -101 -167 14 -17 99 -47 111 -39 10 6 -26 64 -48 77 -17 10 -7 28
11 21 7 -3 16 2 19 10 3 8 22 18 41 21 19 4 44 18 57 31 18 20 20 26 9 39 -7
8 -10 19 -6 23 10 10 132 12 239 5 80 -5 89 -8 97 -29 13 -34 28 -37 34 -7 16
86 17 110 4 115 -7 3 -161 4 -341 2 l-328 -3 -9 22 c-7 20 -9 20 -15 5z"/>
<path d="M1449 3316 c-13 -27 -24 -33 -34 -16 -11 17 -44 11 -55 -10 -13 -24
-38 -26 -68 -4 -21 15 -25 15 -42 -1 -19 -18 -50 -15 -50 5 0 13 -37 13 -45 0
-3 -6 -33 -7 -70 -4 -37 3 -65 2 -65 -4 0 -16 -52 -34 -64 -22 -21 21 -43 10
-59 -32 -16 -40 -17 -41 -36 -24 -19 17 -20 17 -31 -3 -6 -12 -18 -21 -27 -21
-9 0 -33 -19 -54 -42 -35 -37 -44 -41 -86 -42 -42 -1 -49 -4 -70 -36 -37 -57
-67 -100 -81 -116 -8 -8 -17 -27 -21 -42 -13 -47 -50 -38 -171 38 -8 6 -82 50
-165 100 l-150 90 -3 -101 c-3 -94 -1 -101 20 -119 13 -11 33 -19 46 -20 17 0
22 -5 20 -17 -4 -21 -37 -19 -54 3 -18 23 -34 16 -34 -16 0 -18 6 -33 15 -36
19 -8 19 -24 0 -24 -13 0 -15 -28 -15 -189 l0 -190 38 -3 c25 -2 37 -8 37 -18
0 -10 -12 -16 -37 -18 l-38 -3 0 -1190 0 -1189 1111 0 1110 0 -3 32 c-3 35
-14 38 -68 22 l-25 -7 25 27 c31 34 88 60 104 47 6 -5 137 -11 291 -13 l279
-3 12 23 c6 13 17 29 23 35 6 6 11 19 11 29 0 10 6 18 14 18 21 0 249 72 264
83 6 5 12 22 12 38 0 26 2 28 43 27 27 -1 50 -9 65 -22 21 -19 27 -19 92 -8
90 15 121 15 144 -3 11 -8 32 -15 47 -15 73 0 32 -36 -127 -112 -82 -39 -122
-65 -175 -116 -38 -36 -69 -69 -69 -74 0 -4 666 -8 1480 -8 l1480 0 0 26 c0
15 -9 42 -21 60 -11 19 -18 38 -14 44 4 6 65 10 154 10 160 0 173 4 162 50 -6
22 -13 26 -61 30 -38 3 -49 7 -37 13 10 4 29 7 42 7 32 0 38 13 30 66 -5 34
-10 44 -25 44 -13 0 -17 -5 -14 -15 4 -9 0 -16 -7 -16 -8 -1 -21 -3 -29 -4 -8
-1 -22 -3 -30 -4 -40 -4 -44 -18 -16 -55 18 -24 23 -37 14 -37 -58 -7 -159
-12 -185 -10 -7 1 -11 29 -10 88 l2 88 -30 3 c-16 2 -38 11 -47 19 -10 9 -55
22 -100 29 -142 23 -207 68 -102 70 70 2 70 1 40 29 -14 13 -27 36 -28 52 -3
55 -5 78 -6 90 -1 8 -12 11 -31 7 -37 -8 -46 7 -46 76 0 30 -4 55 -10 55 -6 0
-9 -21 -8 -47 2 -39 -1 -48 -17 -53 -11 -4 -25 -3 -31 1 -7 4 -19 -3 -28 -15
-16 -21 -19 -22 -49 -7 -99 49 -90 47 -101 14 -9 -26 -6 -35 24 -80 19 -28 35
-54 35 -59 0 -14 -42 -10 -70 6 -14 8 -35 14 -47 15 -16 0 -23 6 -23 19 0 11
-5 23 -11 27 -6 3 -17 21 -25 38 -8 17 -19 39 -24 48 -6 10 -14 26 -19 35 -10
22 -30 23 -256 12 -259 -12 -745 -13 -757 -1 -7 7 -4 12 8 15 34 10 465 29
501 22 20 -3 91 -3 159 1 137 7 151 16 114 66 -11 15 -20 32 -20 39 0 6 -7 23
-15 37 -8 15 -24 50 -35 79 -24 58 -44 68 -115 57 -43 -6 -44 -6 -64 35 -12
22 -21 51 -21 64 0 14 -7 30 -15 37 -8 7 -15 21 -15 31 0 14 -7 19 -29 19 -17
0 -33 5 -37 12 -12 19 28 39 71 36 l39 -3 26 -87 c14 -48 28 -90 31 -93 4 -3
38 -6 75 -6 56 0 73 -4 92 -21 12 -12 22 -28 22 -35 0 -8 12 -35 26 -61 15
-26 28 -64 29 -85 1 -21 7 -43 13 -49 13 -13 84 -27 140 -28 38 0 42 2 42 23
0 21 -7 25 -54 36 -30 7 -60 18 -66 26 -10 12 6 13 107 9 65 -3 147 -7 183
-10 36 -3 91 -4 123 -4 53 1 58 -1 67 -26 8 -19 14 -24 22 -16 6 6 7 16 2 24
-5 7 -7 21 -6 30 2 10 -4 28 -12 40 -9 12 -16 41 -16 63 0 22 -3 64 -7 93 -5
44 -10 55 -29 63 -30 11 -30 13 1 42 25 22 25 25 15 95 -5 40 -11 116 -12 170
-1 53 -5 105 -10 115 -8 16 -11 16 -30 3 -16 -11 -26 -12 -44 -4 -33 15 -51
-1 -34 -31 14 -27 5 -42 -23 -36 -18 4 -158 14 -216 15 -10 0 -11 3 -3 13 17
20 -4 87 -26 87 -9 0 -41 9 -70 20 -29 11 -61 20 -72 20 -12 0 -20 7 -20 16 0
29 -22 13 -47 -35 -1 -2 -29 -5 -62 -7 -66 -4 -83 11 -26 22 34 6 50 18 50 39
0 12 94 15 116 4 11 -6 21 -4 28 5 8 10 35 13 92 12 45 0 83 3 86 7 7 12 -46
65 -71 73 -12 4 -28 13 -37 20 -13 12 -45 16 -156 23 -27 2 -12 21 16 21 16 0
31 6 35 15 3 8 14 15 25 15 11 0 23 5 27 11 9 14 8 174 -1 188 -3 6 -28 10
-55 9 -27 -1 -53 1 -57 6 -12 12 29 38 52 32 56 -14 92 34 40 54 -29 11 -32
25 -7 36 27 12 412 20 460 10 31 -7 53 -6 79 4 39 13 341 17 438 4 28 -3 75
-1 105 5 84 17 251 18 276 2 16 -11 33 -12 82 -3 43 8 72 8 94 1 18 -6 39 -13
47 -15 11 -4 11 -8 -3 -22 -9 -10 -16 -27 -16 -36 0 -15 5 -17 28 -12 15 4 39
10 55 13 32 6 33 10 10 35 -15 17 -15 19 3 33 10 8 38 15 61 15 37 0 45 4 58
29 8 16 25 33 37 37 33 10 159 83 186 108 12 11 107 64 210 116 122 62 188
101 190 113 3 13 -3 17 -25 17 -16 0 -33 -4 -38 -9 -9 -9 -41 -27 -120 -68
-73 -39 -105 -41 -105 -8 0 8 -9 15 -19 15 -17 0 -19 -5 -14 -34 6 -41 -1 -47
-184 -139 l-132 -67 -110 0 c-62 0 -112 4 -116 10 -8 12 -105 13 -105 1 0 -25
-71 -15 -93 14 -10 13 0 80 15 105 9 14 9 25 0 44 -10 23 -16 24 -71 22 -64
-2 -88 -14 -78 -40 5 -11 14 -14 37 -10 25 6 30 3 30 -14 0 -11 7 -35 15 -55
15 -35 12 -47 -12 -47 -7 0 -22 -9 -33 -20 -28 -28 -164 -29 -218 -1 -31 16
-49 18 -100 12 -34 -4 -68 -13 -74 -19 -8 -8 -60 -12 -162 -12 -120 0 -153 3
-166 15 -25 23 -170 27 -178 5 -9 -25 -19 -27 -139 -24 -93 2 -118 6 -125 18
-6 10 -23 16 -46 16 -35 -1 -36 -2 -18 -15 19 -15 19 -15 -2 -15 -36 0 -59 32
-60 81 -1 71 4 79 49 79 35 0 39 -2 39 -26 0 -21 4 -25 23 -22 29 4 37 61 11
89 -24 26 -12 33 30 18 28 -10 39 -10 48 -1 16 16 43 15 81 -4 21 -12 32 -13
35 -5 2 6 10 11 19 11 11 0 14 -9 11 -37 -3 -35 -1 -38 22 -35 25 3 59 4 83 2
6 -1 22 2 35 5 17 6 22 3 22 -10 0 -10 6 -15 18 -13 14 3 17 13 15 51 -2 39 0
47 15 47 10 0 22 -4 28 -10 6 -6 25 -5 52 2 36 9 45 8 61 -6 22 -20 45 -21 61
-1 7 8 22 15 34 15 299 8 656 6 679 -2 20 -8 34 -8 50 0 12 6 63 16 112 23 50
6 99 16 109 21 23 13 88 -7 112 -34 22 -23 28 -23 59 6 l25 24 -47 -5 -48 -5
33 31 c18 17 38 31 43 31 5 0 27 11 49 25 63 40 98 28 43 -14 -34 -28 -22 -39
14 -13 15 11 53 33 84 49 73 39 149 92 149 104 0 11 -110 -48 -126 -68 -12
-14 -44 -18 -44 -5 0 14 132 112 151 112 7 0 26 10 43 23 17 13 39 26 49 30 9
3 17 11 17 17 0 5 9 10 20 10 13 0 20 7 20 20 0 29 -12 25 -86 -25 -36 -25
-67 -45 -69 -45 -2 0 -41 -25 -87 -57 l-83 -56 -398 -3 c-402 -3 -427 -5 -427
-39 0 -7 17 -17 38 -22 22 -5 37 -15 37 -23 0 -12 -18 -15 -105 -13 -58 2
-415 5 -794 9 -630 6 -690 5 -698 -10 -11 -20 -57 -21 -64 -1 -5 11 -23 15
-74 15 -42 0 -72 5 -76 12 -4 6 -10 39 -13 72 -6 57 -8 61 -31 61 -23 0 -26
-5 -32 -54 -8 -68 -16 -76 -59 -58 -74 32 -74 33 -45 128 14 47 26 90 26 95 0
14 -149 46 -240 50 -73 4 -194 36 -205 55 -4 5 -19 9 -35 9 -24 0 -29 5 -32
28 -3 26 -5 27 -83 33 -90 7 -115 -1 -115 -36 0 -15 -6 -25 -15 -25 -8 0 -29
-6 -47 -14 -72 -31 -170 -56 -195 -50 -25 7 -203 -21 -233 -36 -21 -10 -24
-45 -4 -64 12 -13 19 -14 30 -5 12 9 21 5 49 -24 19 -19 44 -38 55 -42 28 -9
25 -29 -5 -43 -33 -15 -60 -15 -83 -1 -12 8 -28 9 -45 3 -33 -11 -36 -27 -7
-34 38 -9 22 -24 -47 -43 -37 -10 -77 -24 -88 -30 -14 -8 -112 -11 -335 -8
-173 1 -326 -1 -340 -6 -14 -5 -74 -6 -133 -3 l-108 5 -19 35 c-10 19 -28 56
-39 83 -12 26 -30 66 -40 90 -11 23 -24 74 -30 112 -6 39 -17 92 -24 120 -12
46 -16 51 -63 68 -72 28 -92 31 -109 17 -9 -7 -18 -10 -22 -6 -3 3 -15 -1 -24
-10 -17 -16 -20 -15 -37 6 l-19 23 -23 -37 c-25 -41 -40 -35 -40 17 0 39 -45
58 -107 45 -36 -8 -48 -7 -62 6 -10 9 -23 16 -30 16 -6 0 -23 7 -36 16 -24 15
-25 15 -36 -10z m2457 -325 c11 -12 149 -16 187 -6 24 7 27 5 27 -18 0 -14 5
-29 10 -32 6 -3 10 -17 10 -31 0 -34 50 -80 95 -88 20 -4 39 -14 42 -22 6 -15
148 -87 193 -97 14 -4 33 -12 44 -20 15 -11 17 -17 7 -35 -18 -33 -13 -52 21
-84 26 -24 37 -28 64 -23 18 3 37 12 44 20 18 21 48 19 62 -5 23 -37 40 -25
36 26 l-3 46 34 -6 c18 -3 42 -1 52 5 13 6 25 6 37 0 13 -7 22 -7 30 1 6 6 18
8 27 4 14 -5 15 -9 5 -21 -6 -7 -10 -24 -8 -37 3 -24 6 -24 80 -12 35 6 38 4
53 -32 9 -21 15 -48 13 -59 -4 -24 -42 -32 -64 -14 -13 10 -17 10 -25 -2 -5
-8 -9 -19 -9 -26 0 -12 -72 -23 -135 -19 -22 1 -54 3 -71 4 -23 1 -33 8 -37
23 -4 15 -11 20 -22 15 -9 -3 -29 -6 -45 -6 -26 0 -29 -4 -36 -45 -3 -25 -3
-66 1 -91 8 -59 31 -69 98 -43 50 18 77 16 77 -6 0 -15 -25 -21 -126 -30 -48
-5 -74 -3 -78 4 -11 17 -44 13 -55 -6 -8 -15 -12 -16 -35 -4 -19 11 -37 12
-75 4 -40 -8 -53 -7 -65 5 -13 13 -18 13 -40 -1 -14 -10 -31 -17 -39 -17 -8 0
-13 -10 -13 -22 1 -18 -5 -24 -29 -26 -27 -2 -28 -1 -12 11 29 24 19 30 -34
24 -45 -6 -53 -4 -73 18 -29 31 -38 31 -51 3 -9 -20 -17 -21 -90 -21 -60 1
-82 5 -91 17 -13 18 -34 21 -34 5 0 -5 -14 -15 -31 -21 -26 -9 -29 -12 -15
-20 9 -5 14 -13 11 -19 -8 -12 -145 -12 -145 0 0 12 29 23 41 15 6 -3 22 -2
37 2 23 6 19 9 -31 14 -33 4 -66 15 -77 25 -19 17 -21 17 -38 2 -12 -11 -44
-18 -95 -21 -69 -5 -79 -3 -97 16 -19 21 -20 21 -40 3 -30 -27 -176 -29 -202
-3 -22 22 -34 23 -41 4 -9 -22 -127 -31 -170 -12 -47 19 -52 7 -26 -81 25 -89
26 -155 2 -151 -12 2 -19 -4 -21 -19 -4 -27 13 -31 23 -5 6 16 7 16 17 -2 9
-17 6 -24 -23 -48 -18 -15 -38 -28 -44 -28 -6 0 -16 23 -21 51 -5 27 -13 51
-18 52 -11 2 -35 -144 -35 -213 0 -25 6 -53 13 -63 9 -12 11 -29 6 -56 -9 -48
1 -71 24 -52 12 10 17 9 26 -8 16 -30 30 -26 30 9 0 16 4 51 10 77 5 26 11 74
14 106 2 32 7 62 11 65 3 3 26 5 50 3 58 -3 85 6 85 29 0 24 16 34 27 18 10
-17 49 -38 68 -38 8 0 15 -7 15 -15 0 -17 16 -20 25 -5 3 6 -1 13 -9 16 -10 4
-16 18 -16 35 l0 29 78 0 c125 0 182 -10 182 -31 0 -10 -9 -19 -21 -21 -12 -2
-27 -11 -33 -20 -9 -15 -5 -23 24 -47 34 -28 35 -29 17 -49 -18 -20 -18 -21 0
-46 10 -14 28 -26 40 -26 34 0 62 -50 67 -117 8 -108 10 -273 2 -280 -3 -4
-38 -8 -76 -9 l-70 -3 0 205 0 204 -74 0 c-41 0 -77 -3 -79 -7 -3 -5 -8 -96
-12 -203 -4 -107 -10 -198 -14 -202 -14 -15 -50 22 -53 55 l-3 32 -27 -28
c-23 -25 -29 -27 -47 -15 -14 8 -19 19 -15 34 4 17 -2 28 -24 44 -26 19 -30
28 -30 70 0 41 5 53 29 74 37 33 36 47 -2 70 -35 21 -93 15 -103 -10 -3 -9 -6
-48 -6 -87 0 -40 -5 -79 -10 -87 -8 -12 -10 -11 -10 6 0 34 -30 51 -100 57
-183 16 -211 20 -207 31 2 6 20 12 39 14 29 2 37 8 42 28 8 32 2 41 -42 60
-42 18 -100 12 -138 -12 -18 -13 -24 -25 -24 -54 0 -61 -13 -65 -174 -62 -78
2 -145 7 -149 11 -4 4 -10 46 -12 92 -2 46 -6 98 -10 115 -5 24 -1 39 19 69
29 43 30 44 16 80 -9 23 -24 211 -21 255 6 95 15 151 25 159 12 10 255 14 416
7 111 -4 109 -4 82 -26 -18 -15 -33 -18 -75 -14 -86 8 -86 7 -92 -205 l-5
-181 27 -2 c16 -1 46 -2 67 -3 l39 0 1 -57 c1 -40 6 -63 18 -75 10 -9 19 -15
20 -12 2 2 14 20 27 39 24 34 25 37 27 285 1 137 2 253 3 257 2 12 206 20 246
9 30 -8 42 -8 54 3 9 7 23 15 32 19 12 4 16 17 14 51 -2 63 -11 69 -75 50 -53
-16 -114 -15 -313 2 l-68 6 6 61 c10 93 7 90 75 84 33 -3 61 -1 61 4 1 5 2 13
3 18 2 18 13 21 82 22 79 2 114 -6 114 -27 0 -20 22 -27 53 -15 36 14 51 -7
44 -62 -7 -49 4 -73 28 -63 11 4 16 16 15 33 -5 74 4 88 35 57 13 -14 15 -34
10 -129 -6 -124 -1 -153 21 -134 11 9 14 41 14 128 0 114 1 118 26 140 15 13
23 28 20 38 -23 59 -13 93 26 93 10 0 21 7 24 15 4 8 15 15 27 15 11 0 28 7
38 16 19 17 51 21 85 9 15 -4 30 1 53 21 17 14 35 23 39 20 3 -4 8 -116 9
-249 2 -140 7 -245 13 -251 24 -24 32 16 34 162 0 83 3 153 6 155 3 3 28 7 55
9 l50 3 2 -154 c1 -85 5 -161 7 -168 4 -9 30 -13 93 -13 71 0 95 4 121 20 18
11 37 18 42 15 13 -8 20 27 23 105 l2 64 -58 8 c-56 7 -101 30 -111 56 -13 30
77 129 120 134 26 3 29 6 26 33 -2 17 -10 37 -18 46 -8 8 -14 23 -14 32 0 20
-16 31 -25 17 -8 -13 -62 -13 -70 1 -4 5 5 21 19 34 14 13 26 31 26 40 0 30
-26 14 -58 -35 -24 -36 -42 -52 -62 -57 -34 -6 -70 -58 -79 -113 -6 -34 -8
-35 -54 -38 l-47 -3 0 61 c0 56 3 65 31 91 17 16 37 29 44 29 7 0 18 6 24 14
10 12 5 20 -23 43 -20 15 -36 31 -36 36 0 14 123 87 159 93 20 4 43 10 51 15
20 11 54 11 66 0z m-1431 -405 c14 18 16 18 28 2 12 -15 16 -15 28 -3 8 7 37
16 64 19 50 6 50 6 19 -9 -39 -17 -64 -74 -39 -87 8 -5 15 -23 15 -41 0 -18 4
-39 10 -47 6 -9 5 -17 -3 -22 -7 -4 -87 -8 -178 -8 -135 0 -169 3 -179 15 -6
8 -22 13 -33 12 -18 -2 -22 4 -25 33 -2 20 4 43 13 55 15 19 15 19 29 1 8 -10
19 -15 25 -12 16 10 25 74 13 89 -9 10 3 11 61 6 56 -6 75 -4 87 7 13 13 17
12 33 -7 17 -21 18 -22 32 -3z m-2298 -30 c15 -13 39 -26 53 -30 14 -4 39 -14
55 -21 17 -8 39 -17 50 -21 18 -6 17 -8 -9 -13 -23 -5 -29 -12 -32 -36 -1 -16
-7 -46 -13 -65 -6 -19 -13 -70 -17 -114 -5 -66 -9 -79 -26 -84 -13 -3 -17 -10
-12 -21 3 -9 9 -38 12 -65 l5 -49 -44 7 c-24 4 -48 11 -54 17 -5 5 -17 9 -26
9 -24 0 -30 25 -13 47 11 13 17 14 20 6 3 -7 11 -13 17 -13 7 0 18 -9 25 -20
7 -11 19 -20 27 -20 20 0 19 36 -1 44 -14 5 -16 16 -10 61 7 64 -6 73 -28 20
-18 -43 -36 -45 -36 -6 0 20 12 42 35 68 30 33 33 40 20 52 -12 12 -16 12 -31
0 -16 -13 -17 -11 -10 16 4 17 12 67 18 112 10 73 9 85 -5 101 -19 20 -22 42
-8 42 5 0 22 -11 38 -24z m4843 -286 l23 -12 -23 -18 c-18 -14 -21 -23 -16
-46 8 -29 8 -135 1 -143 -2 -2 -22 -4 -45 -5 -42 -1 -53 -10 -21 -19 11 -3 20
-13 20 -23 0 -11 1 -42 3 -71 5 -60 1 -63 -65 -56 -41 5 -47 9 -47 28 0 22 2
22 29 12 32 -12 61 2 61 29 0 22 -16 25 -53 9 -20 -8 -38 -11 -41 -7 -2 4 -3
43 -2 87 2 54 -2 89 -11 108 -8 16 -13 38 -12 50 2 12 -1 32 -5 45 -6 17 -3
27 8 35 21 16 166 13 196 -3z m-484 -362 c4 -4 1 -21 -6 -38 -12 -28 -11 -34
9 -60 26 -36 26 -40 -4 -69 -29 -27 -32 -56 -9 -65 14 -5 16 -16 11 -63 -6
-53 -20 -78 -40 -66 -4 2 -5 25 -1 49 3 24 3 55 0 69 -6 24 -10 25 -74 25 -40
0 -73 5 -80 12 -14 14 -16 86 -3 107 5 8 16 11 25 8 24 -9 19 6 -9 33 -41 38
-33 58 23 62 79 5 150 3 158 -4z m-335 -136 l36 -22 7 -99 c4 -63 2 -110 -5
-128 -10 -27 -11 -27 -25 -9 -8 11 -14 24 -14 28 0 5 -5 14 -10 21 -6 7 -20
25 -31 40 -15 19 -28 27 -40 24 -15 -4 -19 0 -19 18 0 35 24 49 60 37 24 -9
30 -8 30 3 0 7 6 16 13 19 25 10 -26 38 -59 31 -32 -5 -49 5 -56 35 -2 10 8
16 32 21 42 8 37 9 81 -19z m-510 -257 c7 -11 17 -45 21 -75 4 -30 9 -59 10
-65 0 -5 -2 -20 -6 -31 -4 -15 -1 -28 10 -38 19 -20 19 -20 -23 -34 -36 -12
-104 -5 -115 12 -12 17 -9 255 2 277 11 19 12 19 49 -3 21 -12 45 -31 52 -43z
m-291 -698 c0 -13 -5 -28 -11 -34 -27 -27 26 -38 66 -14 15 9 855 7 846 -2
-10 -10 -229 -18 -574 -20 l-269 -2 -13 -35 c-7 -19 -18 -51 -25 -70 -7 -19
-30 -72 -51 -116 -21 -45 -39 -86 -39 -93 0 -6 -7 -11 -15 -11 -18 0 -20 41
-3 58 9 9 9 18 0 37 -19 41 -14 85 18 159 16 38 29 71 27 72 -1 1 -145 5 -320
9 -175 4 -316 10 -313 12 2 2 140 6 307 8 283 3 305 4 314 22 20 36 26 43 41
43 8 0 14 -10 14 -23z m-1300 -168 c0 -32 1 -32 -54 -19 -33 7 -42 6 -52 -8
-10 -13 -25 -16 -73 -14 -58 4 -61 2 -71 -22 -14 -38 -54 -51 -85 -28 -14 9
-25 25 -25 35 0 19 -15 23 -25 7 -9 -15 -41 -12 -54 4 -7 8 -26 18 -42 21 -33
7 -62 32 -54 45 3 5 125 9 270 9 l265 -1 0 -29z m1863 -89 c7 -6 23 -18 35
-28 l24 -18 -99 -60 c-134 -82 -155 -92 -160 -76 -3 6 -15 12 -28 12 -13 0
-26 4 -30 9 -7 12 33 41 56 41 23 0 80 30 108 57 15 15 36 23 57 23 40 0 46
21 12 38 -19 9 -20 11 -5 11 10 1 23 -4 30 -9z"/>
<path d="M4227 2773 c-4 -3 -7 -32 -7 -64 0 -32 -5 -61 -10 -64 -22 -14 -117
-17 -140 -5 -19 10 -25 9 -43 -8 -28 -29 -16 -57 21 -46 15 4 40 7 56 6 16 -1
35 3 42 9 7 6 25 9 41 7 27 -3 28 -5 30 -68 4 -139 16 -280 25 -280 16 0 39
69 29 88 -5 9 -7 69 -5 132 2 63 -1 129 -7 147 -7 23 -7 38 1 54 9 15 9 24 1
32 -6 6 -11 24 -11 39 0 27 -9 35 -23 21z"/>
<path d="M7486 2968 c-8 -13 -16 -49 -18 -82 -3 -52 -7 -62 -36 -87 -18 -16
-40 -29 -50 -29 -21 -1 -52 -23 -52 -39 0 -21 111 -13 167 13 69 32 86 86 27
86 -21 0 -24 5 -24 35 0 20 7 47 16 60 16 24 12 65 -6 65 -5 0 -16 -10 -24
-22z"/>
<path d="M5625 2251 c-49 -21 -54 -55 -40 -276 9 -139 15 -151 47 -97 13 22
17 51 15 123 0 52 2 100 7 107 4 6 20 12 37 12 16 0 29 5 29 10 0 6 -15 10
-34 10 -19 0 -44 9 -57 20 -24 20 -24 20 -5 35 11 9 40 15 68 15 48 0 59 9 36
28 -19 15 -80 23 -103 13z"/>
<path d="M6130 2141 c-6 -11 -8 -32 -4 -46 5 -21 3 -25 -18 -25 -32 0 -66 -25
-70 -52 -4 -31 -34 -35 -43 -7 -7 22 -8 22 -22 3 -8 -10 -13 -32 -12 -49 2
-58 2 -58 -41 -51 -44 7 -44 7 -30 -45 5 -19 12 -84 15 -145 10 -253 19 -365
27 -370 5 -3 48 7 96 24 85 29 201 64 313 96 31 9 66 16 80 16 23 0 23 0 4
-13 -11 -7 -45 -23 -75 -36 -30 -13 -63 -27 -73 -32 -10 -5 -59 -25 -110 -43
-110 -41 -155 -62 -185 -89 -12 -11 -48 -26 -80 -32 -49 -10 -57 -15 -60 -36
-1 -13 -7 -49 -13 -80 -10 -52 -9 -59 8 -76 17 -17 22 -40 28 -134 4 -63 11
-139 17 -169 5 -30 11 -93 12 -140 l3 -85 32 -3 c18 -2 35 -10 38 -18 4 -12
31 -14 149 -12 140 3 144 3 144 24 0 23 -31 34 -99 34 -69 0 -72 10 -75 194
-1 68 3 101 11 103 15 5 31 -25 39 -74 3 -21 11 -47 17 -58 10 -18 11 -17 19
13 7 27 13 32 26 27 9 -4 27 -10 39 -12 22 -5 22 -5 17 113 -3 66 -11 162 -19
214 -7 52 -15 138 -17 190 -3 89 -2 95 17 98 19 3 21 -8 39 -215 23 -271 22
-257 31 -380 4 -57 11 -103 15 -103 25 0 46 74 31 112 -9 23 -11 65 -12 208 0
24 -4 49 -8 55 -5 5 -12 69 -15 140 -4 72 -9 144 -12 160 -5 29 -2 31 46 46
53 17 78 7 45 -17 -19 -14 -19 -46 5 -234 6 -47 13 -120 15 -163 3 -43 9 -86
14 -96 8 -14 4 -23 -20 -43 -23 -21 -29 -34 -29 -67 0 -38 3 -42 38 -57 45
-19 87 -12 120 19 l24 22 20 -28 c22 -30 49 -35 68 -12 16 19 54 19 70 0 7 -8
18 -15 25 -15 6 0 20 -9 30 -20 17 -19 17 -21 0 -40 -23 -25 -42 -26 -50 -1
-9 30 -34 34 -45 7 -5 -13 -28 -37 -51 -52 -29 -20 -45 -39 -51 -61 -5 -18
-15 -33 -22 -33 -21 0 -12 -103 12 -143 16 -25 20 -52 21 -131 1 -76 5 -104
18 -118 11 -13 14 -29 10 -58 l-5 -40 44 0 c49 0 53 8 23 49 -24 33 -23 84 3
89 23 4 38 -27 40 -87 l2 -51 48 0 c47 0 48 1 48 30 0 20 -7 33 -21 41 -19 10
-21 17 -15 62 4 29 6 107 6 174 l-1 123 39 0 39 0 11 -73 c6 -39 19 -136 29
-214 l17 -143 42 0 c23 0 44 5 46 10 2 6 55 14 118 19 108 8 139 14 217 47 19
8 46 11 64 7 25 -5 31 -3 27 8 -5 16 -125 15 -315 -2 -62 -6 -117 -7 -123 -4
-14 8 -13 72 1 81 9 5 204 10 567 13 l72 1 0 628 0 629 -47 9 c-84 16 -82 67
3 80 l44 6 0 73 0 73 -64 7 c-35 4 -81 4 -102 1 -32 -5 -50 0 -104 27 -220
115 -293 149 -328 154 -40 5 -41 5 -53 -37 -9 -31 -10 -46 -2 -59 7 -11 8 -23
2 -32 -5 -8 -7 -26 -4 -40 4 -16 0 -30 -9 -38 -8 -7 -103 -21 -218 -32 -176
-18 -276 -35 -365 -64 -48 -15 -19 16 120 130 78 65 148 123 155 130 11 9 7
18 -19 46 -17 19 -36 46 -41 62 -11 31 -20 34 -38 12 -11 -13 -15 -10 -29 17
-9 18 -25 35 -36 36 -11 2 -37 20 -57 39 -34 33 -40 35 -81 29 -33 -5 -47 -3
-57 9 -14 17 -60 21 -60 5 0 -5 -4 -10 -10 -10 -5 0 -10 10 -10 23 0 33 -20
54 -57 62 -26 5 -34 2 -43 -14z m740 -931 c11 -11 20 -31 20 -45 0 -13 4 -34
10 -47 5 -13 14 -79 20 -148 7 -69 15 -165 20 -215 4 -49 4 -94 0 -99 -5 -5
-20 -6 -33 -2 -29 7 -36 32 -42 149 -3 43 -10 88 -17 100 -7 12 -13 56 -14 97
-1 42 -9 99 -19 128 -15 45 -16 57 -5 78 16 29 33 31 60 4z"/>
<path d="M2860 99 c-29 -24 -60 -69 -60 -85 0 -8 26 -12 76 -12 68 0 80 3 105
26 52 46 35 77 -46 87 -42 5 -54 2 -75 -16z"/>
</g>
</svg>
